<?xml version="1.0" encoding="UTF-8"?>
<svg xmlns="http://www.w3.org/2000/svg" preserveAspectRatio="xMinYMid" viewBox="0 0 1922 579" width="1922" height="579" fill-rule="evenodd" clip-rule="evenodd" stroke-linejoin="round" stroke-miterlimit="1.414">
  <g fill-rule="nonzero">
    <path d="M997.014 346.161v-91.31c0-25.915-12.099-36.524-32.579-36.524-13.33 0-25.174 5.922-37.268 18.262-9.126-14.566-18.756-18.262-29.859-18.262-11.597 0-23.194 5.675-33.064 15.789-.496-6.905-1.976-12.093-4.449-16.036l-24.677 6.912c2.965 6.663 4.446 16.037 4.446 31.591v89.578h26.401v-92.547c9.133-8.389 18.015-12.338 25.668-12.338 10.362 0 13.574 4.685 13.574 19.25v85.635h25.916v-90.816c8.632-8.147 17.272-14.316 26.4-14.316 9.626 0 12.834 4.196 12.834 18.756v86.376h26.657zm138.945-12.091c-9.632-6.663-11.118-12.092-10.87-28.87l.493-35.79c.248-18.51.248-25.168-1.965-30.601-5.428-13.57-18.515-20.729-38.007-20.729-18.755 0-34.305 5.181-53.06 17.025l12.085 19.499c3.956-2.968 21.229-14.318 37.273-14.318 14.805 0 17.272 7.653 17.272 21.971v6.666h-8.389c-39.98 0-61.699 14.551-61.699 43.424 0 21.723 12.836 37.513 41.465 37.513 13.323 0 24.18-3.946 34.305-15.296 2.954 7.895 9.37 13.817 17.025 16.778l14.072-17.272zm-37.273-46.64l-.494 29.614c-5.428 7.888-13.817 13.076-22.461 13.076-10.856 0-17.272-7.4-17.272-19.245 0-15.802 8.149-23.692 35.293-23.692 1.726 0 4.44.247 4.934.247m136.47-67.625c-3.208-1.478-5.675-1.973-9.624-1.973-12.088 0-21.966 6.417-31.834 19.994 0-6.912-1.729-14.071-4.69-19.746l-24.921 6.418c2.714 7.646 4.437 17.766 4.437 33.556v88.107h27.154v-84.397c2.46-10.128 12.084-18.51 23.434-18.51 2.961 0 4.941.741 7.662 1.724l8.382-25.173zm123.889 126.356l-45.658-68.113 36.771-56.766h-31.59c-3.706 5.187-16.284 30.107-19.747 38.256-5.922-11.599-17.025-31.096-22.7-40.469l-29.367 5.923 36.03 53.549-46.396 67.62h34.305c4.683-6.91 22.457-37.266 27.151-46.639 2.459 4.44 22.7 39.482 27.14 46.639h34.061zm21.712 0h12.836v-94.525c11.59-12.58 22.701-18.502 33.066-18.502 7.401 0 12.095 1.971 15.543 5.922 3.215 3.951 4.694 9.379 4.694 17.279v89.826h13.327v-92.547c11.593-13.328 22.46-20.974 34.057-20.974 13.817 0 19.74 8.636 19.74 22.211v91.31h13.824v-92.547c0-19.744-11.605-33.067-30.359-33.067-13.33 0-28.379 8.883-38.745 21.717-3.702-12.834-14.311-21.717-28.876-21.717-13.323 0-28.129 9.379-36.031 19.492 0-9.866-3.448-17.767-3.942-18.757l-13.076 2.967c.494 1.484 3.942 8.391 3.942 24.68v97.232zm233.954 2.714c19.248 0 33.559-9.377 41.207-22.955 5.923-10.114 9.385-23.194 9.385-39.972 0-19.5-3.71-33.816-10.867-44.672-7.154-10.856-19.986-20.976-40.22-20.976-17.275 0-30.108 7.894-37.763 18.015-8.142 10.861-12.833 26.898-12.833 45.902 0 18.509 3.949 33.075 11.351 44.178 7.651 11.597 20.734 20.48 39.74 20.48m.246-11.11c-13.33 0-23.692-7.15-28.382-14.799-5.188-8.396-8.389-23.201-8.389-40.728 0-15.295 2.707-27.14 7.401-35.534 4.443-8.142 14.809-15.296 28.379-15.296 13.083 0 24.186 6.907 29.12 16.778 4.69 8.885 7.157 21.224 7.157 38.75 0 14.308-1.482 21.959-5.922 32.074-4.687 10.62-14.565 18.755-29.364 18.755m128.329 10.122c14.057 0 25.415-4.934 33.804-16.291.246 5.922 2.223 13.083 2.961 14.565h13.577c-2.721-7.157-3.706-17.272-3.706-37.019V168.227l-13.327-2.218v54.785c0 6.658.248 14.558.248 16.289-7.408-9.872-19.5-15.801-34.051-15.801-9.879 0-18.511 3.216-26.904 10.373-14.071 11.599-21.465 29.612-21.465 53.799 0 18.26 4.189 34.05 11.597 44.416 8.135 11.604 20.728 18.017 37.266 18.017m.494-11.35c-12.832 0-21.97-5.188-28.143-15.798-4.436-7.651-6.416-20.974-6.416-35.534 0-18.757 3.208-29.612 9.879-39.244 5.922-8.878 15.543-13.57 25.658-13.57 15.8 0 25.915 5.924 31.837 14.313v71.322c-5.181 9.875-16.284 18.511-32.815 18.511m170.521 13.323l6.914-9.621c-9.628-4.687-11.103-12.092-10.609-31.591l.981-44.178c.244-10.607 0-19.739-4.436-28.622-4.941-9.874-15.056-15.301-29.869-15.301-17.272 0-33.563 6.416-48.114 16.536l6.66 9.621c9.13-7.895 25.17-15.049 39.729-15.049 8.393 0 13.824 2.709 18.009 7.154 3.957 4.445 4.945 10.861 4.945 22.707v11.351c-1.235-.248-5.922-.496-10.867-.496-38.984 0-62.923 14.318-62.923 42.199 0 16.532 8.632 34.305 38.991 34.305 14.065 0 24.921-5.184 35.537-16.785 1.976 8.89 7.154 15.059 15.052 17.77m-48.369-11.103c-19.248 0-26.402-10.61-26.402-25.422 0-21.465 15.052-31.591 47.38-31.591 3.703 0 8.143.248 11.107.494 0 4.204-.494 21.229-.494 26.163 0 1.977-.247 10.115 0 11.597-6.663 11.598-18.507 18.759-31.591 18.759" fill="#f30"></path>
    <path d="M443.417 422.479h-17.602V156.291h17.602v266.188zm-35.26 0h-17.609v-229.18l-81.786 164.363-9.873-19.865 90.203-181.488h19.065v266.17zM373.644 307.13l-57.491 115.579h-14.557l-126.166-266.4h19.528l113.924 241.322 64.762-130.332v39.831zM262.588 422.709L152.862 191.146v231.333H135.23v-266.17h20.708l126.078 266.4h-19.428zm-74.791-.23h-17.279V270.454l17.279 34.768v117.257zM289.324.751C129.854.751.575 130.027.575 289.5c0 159.472 129.279 288.749 288.749 288.749 159.47 0 288.749-129.277 288.749-288.749C578.073 130.027 448.794.751 289.324.751" fill="#919195"></path>
  </g>
</svg>
